<svg id="Flat" viewBox="0 0 24 24" xmlns="http://www.w3.org/2000/svg"><path d="m22 13c0 2.76-1.12 5.26-2.93 7.07l-2.83-2.83c1.09-1.08 1.76-2.58 1.76-4.24 0-3.31-2.69-6-6-6s-6 2.69-6 6c0 1.66.67 3.16 1.76 4.24l-2.83 2.83c-1.81-1.81-2.93-4.31-2.93-7.07 0-5.52 4.48-10 10-10s10 4.48 10 10z" fill="#20bf55"/><path d="m7.76 8.76c-1.09 1.08-1.76 2.58-1.76 4.24h-4c0-2.76 1.12-5.26 2.93-7.07z" fill="#109138"/><path d="m12 3v4c-1.66 0-3.16.67-4.24 1.76l-2.83-2.83c1.81-1.81 4.31-2.93 7.07-2.93z" fill="#2675e2"/><path d="m19.07 5.93-2.83 2.83c-1.08-1.09-2.58-1.76-4.24-1.76v-4c2.76 0 5.26 1.12 7.07 2.93z" fill="#155fb7"/><path d="m22 13h-4c0-1.66-.67-3.16-1.76-4.24l2.83-2.83c1.81 1.81 2.93 4.31 2.93 7.07z" fill="#fcbf49"/><path d="m22 13c0 2.76-1.12 5.26-2.93 7.07l-2.83-2.83c1.09-1.08 1.76-2.58 1.76-4.24z" fill="#e89236"/><path d="m15 21.75h-6c-.41 0-.75-.34-.75-.75s.34-.75.75-.75h6c.41 0 .75.34.75.75s-.34.75-.75.75z" fill="#0b4f6c"/><path d="m12 16.75c-.09 0-.19-.02-.28-.05-.38-.15-.57-.59-.42-.97l2-5c.15-.38.59-.57.97-.42s.57.59.42.97l-2 5c-.12.29-.4.47-.7.47z" fill="#0b4f6c"/><circle cx="12" cy="16" fill="#053c4f" r="1.75"/></svg>